# xmcd
# 
# Track frame offsets:
#     150
#     12161
#     23906
#     34998
#     48782
#     62408
#     75289
#     88614
#     99990
#     116186
#     130851
#     146487
# 
# Disc length: 2126
# 
# Revision: 0
# Processed by: cddbd v1.5.2PL0 Copyright (c) Steve Scherf et al.
# Submitted via: BonkEnc v1.0.6
# 
DISCID=8d084c0c
DTITLE=Chelo con Mariachi - Lo Mejor de Jose Alfredo
DYEAR=2002
DGENRE=Country
TTITLE0=Que Se Acabe La Vida
TTITLE1=Cuando Vivas Conmigo
TTITLE2=Porque Volviste A Mi
TTITLE3=Cuando El Destino
TTITLE4=Que Suerte La Mia
TTITLE5=Ni El Dinero Ni Nada
TTITLE6=Hijo Del Pueblo
TTITLE7=Tu Y La Mentira
TTITLE8=Yo
TTITLE9=Virgencita De Zapopan
TTITLE10=La Noche de Mi Mal
TTITLE11=Cuando Nadie Te Quiera
EXTD=
EXTT0=
EXTT1=
EXTT2=
EXTT3=
EXTT4=
EXTT5=
EXTT6=
EXTT7=
EXTT8=
EXTT9=
EXTT10=
EXTT11=
PLAYORDER=
